# xmcd
# 
# Track frame offsets:
#     150
#     13962
#     24580
#     36840
#     49557
#     61715
#     73375
#     86982
#     98665
#     110470
#     121910
#     133312
#     144292
#     154907
#     164157
#     174780
#     187972
#     199350
#     211945
#     222285
#     233485
#     244405
#     255945
#     269295
#     279237
#     291012
#     300800
#     312287
#     325645
#     336237
# 
# Disc length: 4624
# 
# Revision: 1
# Processed by: cddbd v1.5.2PL0 Copyright (c) Steve Scherf et al.
# Submitted via: fre:ac v1.0.17
# 
DISCID=af120e1e
DTITLE=Johnnie and Jack and The Tennessee Mountain Boys - Johnnie and Jack and the Tennessee Mountain Boys Vol 2
DYEAR=0
DGENRE=Country
TTITLE0=Jesus Remembered Me
TTITLE1=Poison Love
TTITLE2=Lonesome
TTITLE3=I'm Gonna Love You One More Time
TTITLE4=A Smile On My Lips
TTITLE5=Take My Ring From Your Finger
TTITLE6=I Can't Tell My Heart That
TTITLE7=Cryin' Heart Blues
TTITLE8=Let Your Conscience Be Your Guide
TTITLE9=Humming Bird
TTITLE10=How Can I Believe In You
TTITLE11=You Tried To Ruin My Name
TTITLE12=Ashes Of Love
TTITLE13=Three Ways Of Knowing
TTITLE14=When You Want A Little Lovin'
TTITLE15=You Can't Fool God
TTITLE16=Precious Memories
TTITLE17=Shake My Mother's Hand For Me
TTITLE18=When The Saviour Reached Down For Me
TTITLE19=Slow Poison
TTITLE20=But I Love You Just The Same
TTITLE21=Just For Tonight
TTITLE22=Don't Show Off
TTITLE23=Heart Trouble 
TTITLE24=Two Timing Blues
TTITLE25=I've Gone And Done It Again
TTITLE26=Don't Let The Stars Get In Your Eyes
TTITLE27=The Only One I Ever Loved I Lost
TTITLE28=Borrowed Diamonds
TTITLE29=Private Property
EXTD=
EXTT0=
EXTT1=
EXTT2=
EXTT3=
EXTT4=
EXTT5=
EXTT6=
EXTT7=
EXTT8=
EXTT9=
EXTT10=
EXTT11=
EXTT12=
EXTT13=
EXTT14=
EXTT15=
EXTT16=
EXTT17=
EXTT18=
EXTT19=
EXTT20=
EXTT21=
EXTT22=
EXTT23=
EXTT24=
EXTT25=
EXTT26=
EXTT27=
EXTT28=
EXTT29=
PLAYORDER=
